<mxfile host="app.diagrams.net" modified="2024-05-17T07:52:51.272Z" agent="Mozilla/5.0 (Macintosh; Intel Mac OS X 10_15_7) AppleWebKit/537.36 (KHTML, like Gecko) Chrome/123.0.0.0 Safari/537.36" version="24.2.1" etag="czKZ6nmkxqfL4b90MpHJ" type="github">
  <diagram name="第 1 页" id="TWkybqMjBzbYzwkUaGh_">
    <mxGraphModel>
      <root>
        <mxCell id="0" />
        <mxCell id="1" parent="0" />
      </root>
    </mxGraphModel>
  </diagram>
</mxfile>
